<svg width="152" height="73" viewBox="0 0 152 73" fill="none" xmlns="http://www.w3.org/2000/svg">
<path d="M109.979 51.7552C109.419 51.1743 108.564 51.0158 107.846 51.3711C96.3313 57.0214 81.2987 60.1328 65.5157 60.1328C49.7364 60.1328 34.7029 57.0214 23.1869 51.3721C22.4683 51.0197 21.6115 51.1752 21.0552 51.7562C20.4962 52.3381 20.3581 53.2216 20.7109 53.9553C25.9429 64.8555 44.369 72.4667 65.5166 72.4667C86.6726 72.4667 105.1 64.8526 110.326 53.9533C110.677 53.2206 110.537 52.3362 109.979 51.7552Z" fill="#6C63FF"/>
<path d="M17.0052 10.2531C14.6852 10.2531 11.9317 10.745 8.92327 14.2329V4.47174C8.92327 2.0059 6.92191 0 4.46164 0C2.00136 0 0 2.0059 0 4.47174V36.3042C0 38.77 2.00136 40.7759 4.46164 40.7759C6.92191 40.7759 8.92327 38.77 8.92327 36.3042V23.9494C8.92327 20.3975 10.6059 18.4364 13.6717 18.4364C16.6738 18.4364 18.2545 20.34 18.2545 23.9494V36.3042C18.2545 38.77 20.2558 40.7759 22.7161 40.7759C25.1764 40.7759 27.1777 38.77 27.1777 36.3042V21.3558C27.1714 14.4054 23.3726 10.2531 17.0052 10.2531Z" fill="#6C63FF"/>
<path d="M42.6282 10.4704C38.9951 10.4704 36.1142 10.9431 33.2906 12.0036C31.8247 12.5529 30.8431 13.9711 30.8431 15.5298C30.8431 17.6124 32.4939 19.2414 34.6036 19.2414C35.037 19.2414 35.4003 19.1775 35.8975 19.0114C37.612 18.4748 39.4222 18.2193 41.4427 18.2193C46.2357 18.2193 47.2555 20.8704 47.2683 23.1126C45.6047 22.5696 43.5078 22.0714 40.5822 22.0714C32.9592 22.0714 28.5868 25.5657 28.5868 31.6664V31.775C28.5868 37.2881 32.717 40.9932 38.8613 40.9932C42.3222 40.9932 45.0948 39.9392 47.3065 37.78C47.6826 39.3578 49.1932 40.7824 51.5132 40.7824C53.9544 40.7824 55.8665 38.8915 55.8665 36.4768V23.2979C55.8665 19.152 54.783 15.9579 52.635 13.8114C50.4169 11.5947 47.0516 10.4704 42.6282 10.4704ZM41.3343 34.5859C38.8039 34.5859 37.236 33.3849 37.236 31.4492V31.3406C37.236 29.0345 39.1609 27.7185 42.5198 27.7185C44.2408 27.7185 45.9553 28.0571 47.3766 28.6704V29.8905C47.3766 32.6502 44.8909 34.5859 41.3343 34.5859Z" fill="#6C63FF"/>
<path d="M76.4918 10.2534C72.9735 10.2534 70.1308 11.5822 67.8235 14.3099C67.5175 12.1443 65.6564 10.4706 63.4065 10.4706C60.9462 10.4706 58.9448 12.4765 58.9448 14.9424V44.9414C58.9448 47.4072 60.9462 49.4131 63.4065 49.4131C65.8667 49.4131 67.8681 47.4072 67.8681 44.9414V37.2755C70.2583 39.8053 73.0181 40.9935 76.4918 40.9935C80.0994 40.9935 83.4328 39.5881 85.8867 37.0264C88.5701 34.2284 89.9914 30.306 89.9914 25.6745V25.5659C89.9914 15.5109 83.2034 10.2534 76.4918 10.2534ZM74.3885 17.9512C78.2 17.9512 81.0745 21.2284 81.0745 25.5659V25.6745C81.0745 30.0888 78.2637 33.2893 74.3885 33.2893C70.5451 33.2893 67.7597 30.0888 67.7597 25.6745V25.5659C67.7597 21.1517 70.5514 17.9512 74.3885 17.9512Z" fill="#6C63FF"/>
<path d="M109.597 10.2534C106.079 10.2534 103.236 11.5822 100.929 14.3099C100.623 12.1443 98.7616 10.4706 96.5117 10.4706C94.0514 10.4706 92.05 12.4765 92.05 14.9424V44.9414C92.05 47.4072 94.0514 49.4131 96.5117 49.4131C98.972 49.4131 100.973 47.4072 100.973 44.9414V37.2755C103.363 39.8053 106.123 40.9935 109.597 40.9935C113.205 40.9935 116.538 39.5881 118.992 37.0264C121.675 34.2284 123.097 30.306 123.097 25.6745V25.5659C123.097 15.5109 116.309 10.2534 109.597 10.2534ZM107.494 17.9512C111.305 17.9512 114.18 21.2284 114.18 25.5659V25.6745C114.18 30.0888 111.369 33.2893 107.494 33.2893C103.65 33.2893 100.865 30.0888 100.865 25.6745V25.5659C100.865 21.1517 103.657 17.9512 107.494 17.9512Z" fill="#6C63FF"/>
<path d="M147.279 10.4705C145.309 10.4705 143.831 11.6331 143.002 13.8434L137.31 29.6734L131.414 13.7859C130.611 11.5501 129.209 10.4641 127.138 10.4641C124.626 10.4641 122.733 12.3166 122.733 14.7697C122.733 15.3766 122.969 16.2454 123.192 16.8076L132.982 39.5432L132.778 40.0287C132.103 41.3255 131.542 41.5427 130.203 41.5427C129.674 41.5427 129.292 41.4533 128.597 41.2361C128.259 41.1211 127.839 40.9997 127.138 40.9997C125.372 40.9997 123.543 42.3859 123.543 44.7112C123.543 47.0749 125.315 48.0714 126.366 48.4547C127.896 49.0041 129.228 49.2341 130.962 49.2341C135.876 49.2341 138.515 47.0557 141.045 40.9166L151.109 16.6926C151.301 16.2454 151.517 15.2744 151.517 14.6036C151.524 12.2911 149.656 10.4705 147.279 10.4705Z" fill="#6C63FF"/>
</svg>
