<svg width="64" height="72" viewBox="0 0 64 72" fill="none" xmlns="http://www.w3.org/2000/svg">
<path d="M64 18.271V43.694C64 53.7844 55.5565 61.9651 45.1421 61.9651H43.2347L33.4941 71.3963C33.1127 71.7659 32.5849 72 32 72C31.4596 72 30.97 71.809 30.5949 71.4887L30.4296 71.3285L30.4232 71.3224L20.7653 61.9651H18.8516C8.44347 61.9651 0 53.7844 0 43.694V18.271C0 8.1807 8.44347 0 18.8579 0H45.1421C55.5565 0 64 8.1807 64 18.271Z" fill="#6C63FF"/>
<path d="M51.7546 38.2607C51.4995 37.9961 51.11 37.9239 50.783 38.0858C45.5373 40.6598 38.6892 42.0772 31.4992 42.0772C24.3109 42.0772 17.4623 40.6598 12.2161 38.0862C11.8887 37.9256 11.4984 37.9965 11.245 38.2612C10.9904 38.5263 10.9274 38.9287 11.0882 39.263C13.4716 44.2286 21.8657 47.6959 31.4996 47.6959C41.1373 47.6959 49.5318 44.2273 51.9127 39.2621C52.0726 38.9283 52.0088 38.5254 51.7546 38.2607Z" fill="white"/>
<path d="M25.1432 26.4937H13.9404V21.0196C13.9404 17.9976 16.4497 15.5454 19.5418 15.5454C22.634 15.5454 25.1432 17.9976 25.1432 21.0196V26.4937Z" fill="white"/>
<path d="M48.803 26.4937H37.6002V21.0196C37.6002 17.9976 40.1094 15.5454 43.2016 15.5454C46.2938 15.5454 48.803 17.9976 48.803 21.0196V26.4937Z" fill="white"/>
</svg>
